# Blender v2.93.3 OBJ File: 'shirt.blend'
# www.blender.org
mtllib shirt.mtl
o 円柱
v 0.000000 -0.285818 -2.657556
v 0.000000 -0.285818 2.564566
v -2.533166 0.000000 0.258819
v -1.013025 1.494613 -5.376807
v -1.208115 -0.815360 -5.396021
v -1.208115 1.184640 -5.396021
v -1.013025 -0.815360 -5.376807
v -1.013025 1.184640 -5.376807
v -0.825432 -0.815360 -5.319901
v -0.825432 1.184640 -5.319901
v -0.652545 -0.815360 -5.227491
v -0.652545 1.184640 -5.227491
v -0.501009 -0.815360 -5.103128
v -0.501009 1.184640 -5.103128
v -0.376646 -0.815360 -4.951591
v -0.376646 1.184640 -4.951591
v -0.284236 -0.815360 -4.778705
v -0.284236 1.184640 -4.778705
v -0.227330 -0.815360 -4.591112
v -0.227330 1.184640 -4.591112
v -0.208115 -0.815360 -4.396021
v -0.208115 1.184640 -4.396021
v -0.227330 -0.815360 -4.200931
v -0.227330 1.184640 -4.200931
v -0.284236 -0.815360 -4.013338
v -0.284236 1.184640 -4.013338
v -0.376646 -0.815360 -3.840451
v -0.376646 1.184640 -3.840451
v -0.501009 -0.815360 -3.688915
v -0.501009 1.184640 -3.688915
v -0.652545 -0.815360 -3.564552
v -0.652545 1.184640 -3.564552
v -0.825432 -0.815360 -3.472142
v -0.825432 1.184640 -3.472142
v -1.013025 -0.815360 -3.415236
v -1.013025 1.184640 -3.415236
v -1.208116 -0.815360 -3.396021
v -1.208116 1.184640 -3.396021
v -1.403206 -0.815360 -3.415236
v -1.403206 1.184640 -3.415236
v -1.590799 -0.815360 -3.472142
v -1.590799 1.184640 -3.472142
v -1.763686 -0.815360 -3.564552
v -1.763686 1.184640 -3.564552
v -1.915222 -0.815360 -3.688915
v -1.915222 1.184640 -3.688915
v -2.039585 -0.815360 -3.840451
v -2.039585 1.184640 -3.840451
v -2.131995 -0.815360 -4.013338
v -2.131995 1.184640 -4.013338
v -2.188901 -0.815360 -4.200931
v -2.188901 1.184640 -4.200931
v -2.266243 -0.895813 -4.379089
v -2.266243 1.104187 -4.379089
v -2.188901 -0.815360 -4.591112
v -2.188901 1.184640 -4.591112
v -2.131995 -0.815360 -4.778705
v -2.131995 1.184640 -4.778705
v -2.039585 -0.815360 -4.951591
v -2.039585 1.184640 -4.951591
v -1.915222 -0.815360 -5.103128
v -1.915222 1.184640 -5.103128
v -1.763686 -0.815360 -5.227491
v -1.763686 1.184640 -5.227491
v -1.590799 -0.815360 -5.319901
v -1.590799 1.184640 -5.319901
v -1.403206 -0.815360 -5.376807
v -1.403206 1.184640 -5.376807
v -0.825432 1.494613 -5.319901
v -0.652545 1.494613 -5.227491
v -0.501009 1.494613 -5.103128
v -0.376646 1.494613 -4.951591
v -0.284236 1.494613 -4.778705
v -0.227330 1.494613 -4.591112
v -0.208115 1.494613 -4.396021
v -0.227330 1.494613 -4.200931
v -0.284236 1.494613 -4.013338
v -0.376646 1.494613 -3.840451
v -0.501009 1.494613 -3.688915
v -0.652545 1.494613 -3.564552
v -0.825432 1.494613 -3.472142
v -1.013025 1.494613 -3.415236
v -1.403206 1.494613 -6.836335
v -1.403206 1.494613 -3.415236
v -1.590799 1.494613 -3.472142
v -1.763686 1.494613 -3.564552
v -1.915222 1.494613 -3.688915
v -2.039585 1.494613 -3.840451
v -2.131995 1.494613 -4.013338
v -2.188901 1.494613 -4.200931
v -0.953871 2.056164 -4.989335
v -2.188901 1.494613 -4.591112
v -2.131995 1.494613 -4.778705
v -2.039585 1.494613 -4.951591
v -1.915222 1.494613 -5.103128
v -1.763686 1.494613 -5.227491
v -1.590799 1.494613 -5.319901
v -1.403206 1.494613 -5.376807
v -1.013025 1.793381 -5.376807
v -1.208115 1.793381 -5.396021
v -0.825432 1.793381 -5.319901
v -0.652545 1.793381 -5.227491
v -0.501009 1.793381 -5.103128
v -0.376646 1.793381 -4.951591
v -0.284236 1.793381 -4.778705
v -0.227330 1.793381 -4.591112
v -0.208115 1.793381 -4.396021
v -0.227330 1.793381 -4.200931
v -0.284236 1.793381 -4.013338
v -0.376646 1.793381 -3.840451
v -0.501009 1.793381 -3.688915
v -0.652545 1.793381 -3.564552
v -0.825432 1.793381 -3.472142
v -1.013025 1.793381 -3.415236
v -1.208116 1.793381 -3.396021
v -1.403206 1.793381 -3.415236
v -1.590799 1.793381 -3.472142
v -1.763686 1.793381 -3.564552
v -1.915222 1.793381 -3.688915
v -2.039585 1.793381 -3.840451
v -2.131995 1.793381 -4.013338
v -2.188901 1.793381 -4.200931
v -2.208116 1.793381 -4.396021
v -2.188901 1.793381 -4.591112
v -2.131995 1.793381 -4.778705
v -2.039585 1.793381 -4.951591
v -1.915222 1.793381 -5.103128
v -1.763686 1.793381 -5.227491
v -1.590799 1.793381 -5.319901
v -1.403206 1.793381 -5.376807
v -1.208115 0.184640 -5.396021
v -1.013025 0.184640 -5.376807
v -0.825432 0.184640 -5.319901
v -0.652545 0.184640 -5.227491
v -0.501009 0.184640 -5.103128
v -0.376646 0.184640 -4.951591
v -0.284236 0.184640 -4.778705
v -0.227330 0.184640 -4.591112
v -0.208115 0.184640 -4.396021
v -0.227330 0.184640 -4.200931
v -0.284236 0.184640 -4.013338
v -0.376646 0.184640 -3.840451
v -0.501009 0.184640 -3.688915
v -0.652545 0.184640 -3.564552
v -0.825432 0.184640 -3.472142
v -1.013025 0.184640 -3.415236
v -1.208116 0.184640 -3.396021
v -1.403206 0.184640 -3.415236
v -1.590799 0.184640 -3.472142
v -1.763686 0.184640 -3.564552
v -1.915222 0.184640 -3.688915
v -2.039585 0.184640 -3.840451
v -2.131995 0.184640 -4.013338
v -2.188901 0.184640 -4.200931
v -2.266243 0.104187 -4.379089
v -2.188901 0.184640 -4.591112
v -2.131995 0.184640 -4.778705
v -2.039585 0.184640 -4.951591
v -1.915222 0.184640 -5.103128
v -1.763686 0.184640 -5.227491
v -1.590799 0.184640 -5.319901
v -1.403206 0.184640 -5.376807
v -2.205587 1.499369 -4.396689
v -2.208116 1.184640 -4.396021
v -2.208116 0.184640 -4.396021
v -2.208116 -0.815360 -4.396021
v -2.266243 1.712928 -4.379089
v -1.063307 2.056164 -5.000114
v -0.848640 2.056164 -4.957414
v -0.751659 2.056164 -4.905576
v -0.666654 2.056164 -4.835814
v -0.596892 2.056164 -4.750810
v -0.545055 2.056164 -4.653828
v -0.513133 2.056164 -4.548597
v -0.502355 2.056164 -4.439161
v -0.513133 2.056164 -4.329725
v -0.545055 2.056164 -4.224494
v -0.596892 2.056164 -4.127512
v -0.666654 2.056164 -4.042508
v -0.751659 2.056164 -3.972746
v -0.848640 2.056164 -3.920908
v -0.953871 2.056164 -3.888987
v -1.063307 2.056164 -3.878208
v -1.172744 2.056164 -3.888987
v -1.277975 2.056164 -3.920908
v -1.374956 2.056164 -3.972746
v -1.459961 2.056164 -4.042508
v -1.529722 2.056164 -4.127512
v -1.581560 2.056164 -4.224494
v -1.613482 2.056164 -4.329725
v -1.624260 2.056164 -4.439161
v -1.613482 2.056164 -4.548597
v -1.581560 2.056164 -4.653829
v -1.529723 2.056164 -4.750810
v -1.459961 2.056164 -4.835814
v -1.374956 2.056164 -4.905576
v -1.277975 2.056164 -4.957414
v -1.172744 2.056164 -4.989335
v -1.687633 1.978801 -4.497756
v -0.930812 1.917948 -5.457458
v -1.142710 1.917948 -5.478330
v -0.727057 1.917948 -5.395650
v -0.539275 1.917948 -5.295279
v -0.374682 1.917948 -5.160202
v -0.239605 1.917948 -4.995610
v -0.139234 1.917948 -4.807827
v -0.077425 1.917948 -4.604073
v -0.056555 1.917948 -4.392174
v -0.077425 1.917948 -4.180276
v -0.139234 1.917948 -3.976521
v -0.239605 1.917948 -3.788739
v -0.374682 1.917948 -3.624147
v -0.539275 1.917948 -3.489070
v -0.727057 1.917948 -3.388698
v -0.930812 1.917948 -3.326889
v -1.142710 1.917948 -3.306019
v -1.354608 1.917948 -3.326889
v -1.558364 1.917948 -3.388698
v -1.746145 1.917948 -3.489070
v -1.910737 1.917948 -3.624147
v -2.045815 1.917948 -3.788739
v -2.146186 1.917948 -3.976521
v -2.207995 1.917948 -4.180276
v -2.228865 1.917948 -4.392174
v -2.207995 1.917948 -4.604073
v -2.146186 1.917948 -4.807828
v -2.045815 1.917948 -4.995610
v -1.910738 1.917948 -5.160202
v -1.746145 1.917948 -5.295279
v -1.558364 1.917948 -5.395650
v -1.354608 1.917948 -5.457458
v -2.261082 1.908785 -4.430702
v -1.403206 1.494613 -1.679231
v -1.403206 1.184640 -1.679231
v -1.208116 1.494613 -1.660017
v -1.013025 1.494613 -1.679231
v -1.208116 1.184640 -1.660017
v -1.013025 1.184640 -1.679231
v -1.403206 1.793381 -1.679231
v -1.208116 1.793381 -1.660017
v -1.013025 1.793381 -1.679231
v -1.403206 1.184640 -6.836335
v -1.208115 1.494613 -6.855549
v -1.013025 1.184640 -6.836335
v -1.208115 1.184640 -6.855549
v -1.013025 1.494613 -6.836335
v -1.208115 1.793381 -6.855549
v -1.403206 1.793381 -6.836335
v -1.013025 1.793381 -6.836335
vt 0.156250 1.000000
vt 0.187500 1.000000
vt 0.187500 1.000000
vt 0.156250 1.000000
vt 0.750000 1.000000
vt 0.781250 1.000000
vt 0.781250 1.000000
vt 0.750000 1.000000
vt 1.000000 0.750000
vt 1.000000 1.000000
vt 0.968750 1.000000
vt 0.968750 0.750000
vt 0.031250 0.500000
vt 0.031250 0.750000
vt 0.000000 0.750000
vt 0.000000 0.500000
vt 0.000000 1.000000
vt 0.031250 1.000000
vt 0.031250 1.000000
vt 0.000000 1.000000
vt 0.937500 1.000000
vt 0.937500 0.750000
vt 0.656250 1.000000
vt 0.687500 1.000000
vt 0.687500 1.000000
vt 0.656250 1.000000
vt 0.968750 1.000000
vt 0.937500 1.000000
vt 0.906250 1.000000
vt 0.906250 0.750000
vt 0.906250 1.000000
vt 0.937500 1.000000
vt 0.906250 1.000000
vt 0.687500 1.000000
vt 0.718750 1.000000
vt 0.718750 1.000000
vt 0.875000 1.000000
vt 0.875000 0.750000
vt 0.062500 1.000000
vt 0.093750 1.000000
vt 0.093750 1.000000
vt 0.062500 1.000000
vt 0.437500 1.000000
vt 0.468750 1.000000
vt 0.468750 1.000000
vt 0.437500 1.000000
vt 0.843750 1.000000
vt 0.843750 0.750000
vt 0.312500 1.000000
vt 0.343750 1.000000
vt 0.343750 1.000000
vt 0.312500 1.000000
vt 0.187500 1.000000
vt 0.218750 1.000000
vt 0.218750 1.000000
vt 0.812500 1.000000
vt 0.812500 0.750000
vt 0.562500 1.000000
vt 0.593750 1.000000
vt 0.593750 1.000000
vt 0.562500 1.000000
vt 0.781250 1.000000
vt 0.812500 1.000000
vt 0.781250 0.750000
vt 0.843750 1.000000
vt 0.843750 1.000000
vt 0.812500 1.000000
vt 0.531250 1.000000
vt 0.562500 1.000000
vt 0.531250 1.000000
vt 0.750000 1.000000
vt 0.750000 0.750000
vt 0.250000 1.000000
vt 0.250000 1.000000
vt 0.218750 1.000000
vt 0.281250 1.000000
vt 0.312500 1.000000
vt 0.281250 1.000000
vt 0.718750 0.750000
vt 0.500000 1.000000
vt 0.468750 1.000000
vt 0.468750 1.000000
vt 0.500000 1.000000
vt 0.062500 1.000000
vt 0.031250 1.000000
vt 0.687500 0.750000
vt 0.718750 1.000000
vt 0.875000 1.000000
vt 0.656250 1.000000
vt 0.656250 0.750000
vt 1.000000 1.000000
vt 0.968750 1.000000
vt 0.625000 1.000000
vt 0.625000 1.000000
vt 0.625000 0.750000
vt 0.125000 1.000000
vt 0.125000 1.000000
vt 0.375000 1.000000
vt 0.406250 1.000000
vt 0.406250 1.000000
vt 0.375000 1.000000
vt 0.593750 1.000000
vt 0.593750 0.750000
vt 0.406250 1.000000
vt 0.375000 1.000000
vt 0.125000 1.000000
vt 0.156250 1.000000
vt 0.562500 0.750000
vt 0.625000 1.000000
vt 0.531250 0.750000
vt 0.875000 1.000000
vt 0.500000 1.000000
vt 0.500000 1.000000
vt 0.468750 1.000000
vt 0.500000 0.750000
vt 0.281250 1.000000
vt 0.250000 1.000000
vt 0.468750 0.750000
vt 0.531250 1.000000
vt 0.968750 1.000000
vt 0.968750 1.000000
vt 0.968750 1.000000
vt 0.437500 0.750000
vt 0.406250 0.750000
vt 0.031250 1.000000
vt 0.375000 0.750000
vt 0.343750 1.000000
vt 0.343750 0.750000
vt 0.031250 1.000000
vt 0.093750 1.000000
vt 0.312500 0.750000
vt 0.437500 1.000000
vt 0.281250 0.750000
vt 0.250000 1.000000
vt 0.250000 0.750000
vt 0.250000 0.750000
vt 0.218750 0.750000
vt 0.187500 0.750000
vt 0.156250 0.750000
vt 0.531250 1.000000
vt 0.125000 0.750000
vt 0.093750 0.750000
vt 0.250000 1.000000
vt 0.062500 0.750000
vt 0.468750 1.000000
vt 0.062500 0.500000
vt 0.093750 0.500000
vt 0.125000 0.500000
vt 0.156250 0.500000
vt 0.187500 0.500000
vt 0.218750 0.500000
vt 0.250000 0.500000
vt 0.281250 0.500000
vt 0.250000 0.500000
vt 0.312500 0.500000
vt 0.343750 0.500000
vt 0.375000 0.500000
vt 0.406250 0.500000
vt 0.437500 0.500000
vt 0.468750 0.500000
vt 0.500000 0.500000
vt 0.531250 0.500000
vt 0.562500 0.500000
vt 0.593750 0.500000
vt 0.625000 0.500000
vt 0.656250 0.500000
vt 0.687500 0.500000
vt 0.718750 0.500000
vt 0.750000 0.500000
vt 0.781250 0.500000
vt 0.812500 0.500000
vt 0.843750 0.500000
vt 0.875000 0.500000
vt 0.906250 0.500000
vt 0.937500 0.500000
vt 0.968750 0.500000
vt 1.000000 0.500000
vt 0.437500 1.000000
vt 0.406250 1.000000
vt 0.000000 1.000000
vt 0.031250 1.000000
vt 0.000000 1.000000
vt 0.875000 1.000000
vt 0.843750 1.000000
vt 0.468750 1.000000
vt 0.062500 1.000000
vt 0.906250 1.000000
vt 0.500000 1.000000
vt 0.093750 1.000000
vt 0.937500 1.000000
vt 0.531250 1.000000
vt 0.125000 1.000000
vt 0.968750 1.000000
vt 0.562500 1.000000
vt 0.156250 1.000000
vt 1.000000 1.000000
vt 1.000000 1.000000
vt 0.593750 1.000000
vt 0.187500 1.000000
vt 0.625000 1.000000
vt 0.218750 1.000000
vt 0.656250 1.000000
vt 0.250000 1.000000
vt 0.687500 1.000000
vt 0.281250 1.000000
vt 0.250000 1.000000
vt 0.718750 1.000000
vt 0.312500 1.000000
vt 0.750000 1.000000
vt 0.343750 1.000000
vt 0.781250 1.000000
vt 0.375000 1.000000
vt 0.812500 1.000000
vt 0.031250 1.000000
vt 0.062500 1.000000
vt 0.718750 1.000000
vt 0.750000 1.000000
vt 0.312500 1.000000
vt 0.343750 1.000000
vt 0.000000 1.000000
vt 0.781250 1.000000
vt 0.093750 1.000000
vt 0.375000 1.000000
vt 0.812500 1.000000
vt 0.406250 1.000000
vt 0.843750 1.000000
vt 0.437500 1.000000
vt 0.875000 1.000000
vt 0.468750 1.000000
vt 0.906250 1.000000
vt 0.500000 1.000000
vt 0.937500 1.000000
vt 0.531250 1.000000
vt 0.125000 1.000000
vt 0.968750 1.000000
vt 0.562500 1.000000
vt 0.156250 1.000000
vt 1.000000 1.000000
vt 0.593750 1.000000
vt 0.187500 1.000000
vt 0.625000 1.000000
vt 0.218750 1.000000
vt 0.656250 1.000000
vt 0.250000 1.000000
vt 0.687500 1.000000
vt 0.250000 1.000000
vt 0.281250 1.000000
vt 0.500000 1.000000
vt 0.531250 1.000000
vt 0.531250 1.000000
vt 0.000000 1.000000
vt 1.000000 1.000000
vt 1.000000 1.000000
vt 0.031250 1.000000
vt 0.000000 1.000000
vn -0.8819 0.0000 -0.4714
vn 0.9952 0.0000 -0.0980
vn 0.0980 0.0000 -0.9952
vn -0.0980 0.0000 -0.9952
vn 0.0000 -1.0000 0.0000
vn 0.2903 0.0000 -0.9569
vn 0.8819 0.0000 0.4714
vn 0.4714 0.0000 -0.8819
vn 0.9569 0.0000 0.2903
vn 0.6344 0.0000 -0.7730
vn -0.4714 0.0000 -0.8819
vn -0.2903 0.0000 0.9569
vn 0.7730 0.0000 -0.6344
vn -0.8819 0.0000 0.4714
vn -0.9569 0.0000 -0.2903
vn 0.8819 0.0000 -0.4714
vn 0.4714 0.0000 0.8819
vn 0.9569 0.0000 -0.2903
vn 0.2903 0.0000 0.9569
vn -0.9643 -0.1058 -0.2428
vn -0.9569 0.0000 0.2903
vn 0.9952 0.0000 0.0980
vn 0.0000 1.0000 0.0000
vn -0.2903 0.0000 -0.9569
vn 0.7730 0.0000 0.6344
vn -0.7730 0.0000 -0.6344
vn -0.6344 0.0000 0.7730
vn 0.6344 0.0000 0.7730
vn 0.0980 0.0000 0.9952
vn -0.9744 0.0786 -0.2108
vn -0.0980 0.0000 0.9952
vn 1.0000 0.0000 0.0000
vn -0.4714 0.0000 0.8819
vn -0.7730 0.0000 0.6344
vn -1.0000 0.0000 0.0000
vn -0.9952 0.0000 0.0980
vn -0.9394 0.0000 -0.3427
vn -0.6344 0.0000 -0.7730
vn -0.9958 0.0041 0.0915
vn -0.9958 -0.0044 0.0914
vn -0.2053 0.9002 0.3840
vn -0.0531 0.8408 -0.5387
vn 0.5116 0.7496 -0.4199
vn -0.1309 0.8926 0.4314
vn -0.1494 0.8573 -0.4926
vn 0.4089 0.7646 -0.4982
vn -0.0460 0.8829 0.4673
vn -0.2311 0.8716 -0.4324
vn 0.2933 0.7828 -0.5487
vn 0.0482 0.8709 0.4891
vn -0.2973 0.8834 -0.3622
vn 0.1731 0.8026 -0.5708
vn 0.1498 0.8566 0.4938
vn -0.3478 0.8930 -0.2855
vn 0.0558 0.8224 -0.5662
vn 0.2558 0.8399 0.4786
vn -0.3834 0.9005 -0.2049
vn 0.3619 0.8214 0.4409
vn -0.4047 0.9061 -0.1228
vn 0.4621 0.8016 0.3793
vn -0.3799 0.8732 0.3053
vn 0.5498 0.7819 0.2939
vn -0.4076 0.9123 0.0401
vn 0.6178 0.7637 0.1874
vn -0.3904 0.9130 0.1184
vn 0.6594 0.7490 0.0649
vn -0.3614 0.9122 0.1932
vn 0.6700 0.7394 -0.0660
vn -0.3207 0.9099 0.2632
vn 0.6477 0.7362 -0.1965
vn -0.2687 0.9059 0.3274
vn 0.5934 0.7397 -0.3172
vn -0.0772 0.9640 -0.2546
vn 0.2932 0.9556 0.0289
vn -0.1934 0.9757 0.1034
vn -0.0269 0.9615 -0.2734
vn 0.2988 0.9539 -0.0294
vn -0.1214 0.9663 -0.2271
vn -0.1698 0.9756 0.1394
vn 0.2910 0.9527 -0.0883
vn -0.1403 0.9752 0.1710
vn 0.2696 0.9521 -0.1441
vn -0.1056 0.9746 0.1975
vn 0.2358 0.9523 -0.1935
vn -0.0661 0.9737 0.2180
vn 0.1917 0.9532 -0.2336
vn -0.0228 0.9725 0.2317
vn 0.1402 0.9548 -0.2622
vn 0.0234 0.9710 0.2378
vn -0.1582 0.9684 -0.1928
vn 0.0844 0.9568 -0.2783
vn 0.0714 0.9693 0.2354
vn -0.1870 0.9703 -0.1535
vn 0.0278 0.9591 -0.2818
vn 0.1197 0.9672 0.2239
vn -0.2076 0.9719 -0.1110
vn 0.1664 0.9650 0.2027
vn -0.2200 0.9732 -0.0667
vn 0.2094 0.9626 0.1719
vn -0.1663 0.9480 0.2714
vn 0.2465 0.9601 0.1318
vn -0.2212 0.9750 0.0218
vn 0.2752 0.9578 0.0835
vn -0.2107 0.9755 0.0639
usemtl マテリアル
s off
f 94/1/1 93/2/1 125/3/1 126/4/1
f 75/5/2 74/6/2 106/7/2 107/8/2
f 131/9/3 6/10/3 8/11/3 132/12/3
f 67/13/4 162/14/4 131/15/4 5/16/4
f 6/17/5 68/18/5 242/19/5 245/20/5
f 132/12/6 8/11/6 10/21/6 133/22/6
f 78/23/7 77/24/7 109/25/7 110/26/7
f 10/21/6 8/11/6 4/27/6 69/28/6
f 133/22/8 10/21/8 12/29/8 134/30/8
f 70/31/8 69/28/8 101/32/8 102/33/8
f 26/34/9 24/35/9 76/36/9 77/24/9
f 134/30/10 12/29/10 14/37/10 135/38/10
f 97/39/11 96/40/11 128/41/11 129/42/11
f 42/43/12 40/44/12 84/45/12 85/46/12
f 135/38/13 14/37/13 16/47/13 136/48/13
f 89/49/14 88/50/14 120/51/14 121/52/14
f 58/53/15 56/54/15 92/55/15 93/2/15
f 136/48/16 16/47/16 18/56/16 137/57/16
f 81/58/17 80/59/17 112/60/17 113/61/17
f 20/62/18 18/56/18 73/63/18 74/6/18
f 137/57/18 18/56/18 20/62/18 138/64/18
f 73/63/16 72/65/16 104/66/16 105/67/16
f 36/68/19 34/69/19 81/58/19 82/70/19
f 138/64/2 20/62/2 22/71/2 139/72/2
f 92/55/20 163/73/20 167/74/20 124/75/20
f 52/76/21 50/77/21 89/49/21 90/78/21
f 139/72/22 22/71/22 24/35/22 140/79/22
f 115/80/23 116/81/23 239/82/23 240/83/23
f 68/18/24 66/84/24 97/39/24 98/85/24
f 140/79/9 24/35/9 26/34/9 141/86/9
f 76/36/22 75/5/22 107/8/22 108/87/22
f 14/37/10 12/29/10 70/31/10 71/88/10
f 141/86/7 26/34/7 28/89/7 142/90/7
f 8/11/5 6/10/5 245/91/5 244/92/5
f 30/93/25 28/89/25 78/23/25 79/94/25
f 142/90/25 28/89/25 30/93/25 143/95/25
f 95/96/26 94/1/26 126/4/26 127/97/26
f 46/98/27 44/99/27 86/100/27 87/101/27
f 143/95/28 30/93/28 32/102/28 144/103/28
f 87/101/27 86/100/27 118/104/27 119/105/27
f 62/106/26 60/107/26 94/1/26 95/96/26
f 144/103/17 32/102/17 34/69/17 145/108/17
f 79/94/25 78/23/25 110/26/25 111/109/25
f 24/35/22 22/71/22 75/5/22 76/36/22
f 145/108/19 34/69/19 36/68/19 146/110/19
f 71/88/10 70/31/10 102/33/10 103/111/10
f 40/44/5 38/112/5 237/113/5 234/114/5
f 146/110/29 36/68/29 38/112/29 147/115/29
f 90/78/21 89/49/21 121/52/21 122/116/21
f 56/54/30 54/117/30 163/73/30 92/55/30
f 147/115/31 38/112/31 40/44/31 148/118/31
f 82/70/19 81/58/19 113/61/19 114/119/19
f 99/120/32 4/27/32 246/121/32 249/122/32
f 148/118/12 40/44/12 42/43/12 149/123/12
f 74/6/18 73/63/18 105/67/18 106/7/18
f 18/56/16 16/47/16 72/65/16 73/63/16
f 149/123/33 42/43/33 44/99/33 150/124/33
f 98/85/24 97/39/24 129/42/24 130/125/24
f 34/69/17 32/102/17 80/59/17 81/58/17
f 150/124/27 44/99/27 46/98/27 151/126/27
f 93/2/15 92/55/15 124/75/15 125/3/15
f 50/77/14 48/127/14 88/50/14 89/49/14
f 151/126/34 46/98/34 48/127/34 152/128/34
f 68/18/35 98/85/35 83/129/35 242/19/35
f 66/84/11 64/130/11 96/40/11 97/39/11
f 152/128/14 48/127/14 50/77/14 153/131/14
f 85/46/12 84/45/12 116/81/12 117/132/12
f 12/29/8 10/21/8 69/28/8 70/31/8
f 153/131/21 50/77/21 52/76/21 154/133/21
f 77/24/9 76/36/9 108/87/9 109/25/9
f 28/89/7 26/34/7 77/24/7 78/23/7
f 154/133/36 52/76/36 164/134/36 165/135/36
f 69/28/6 4/27/6 99/120/6 101/32/6
f 44/99/33 42/43/33 85/46/33 86/100/33
f 155/136/37 54/117/37 56/54/37 156/137/37
f 96/40/38 95/96/38 127/97/38 128/41/38
f 60/107/1 58/53/1 93/2/1 94/1/1
f 156/137/15 56/54/15 58/53/15 157/138/15
f 88/50/34 87/101/34 119/105/34 120/51/34
f 22/71/2 20/62/2 74/6/2 75/5/2
f 157/138/1 58/53/1 60/107/1 158/139/1
f 80/59/28 79/94/28 111/109/28 112/60/28
f 114/119/23 115/80/23 240/83/23 241/140/23
f 158/139/26 60/107/26 62/106/26 159/141/26
f 72/65/13 71/88/13 103/111/13 104/66/13
f 164/134/39 52/76/39 90/78/39 163/73/39
f 159/141/38 62/106/38 64/130/38 160/142/38
f 163/73/40 90/78/40 122/116/40 123/143/40
f 16/47/13 14/37/13 71/88/13 72/65/13
f 160/142/11 64/130/11 66/84/11 161/144/11
f 48/127/34 46/98/34 87/101/34 88/50/34
f 32/102/28 30/93/28 79/94/28 80/59/28
f 161/144/24 66/84/24 68/18/24 162/14/24
f 86/100/33 85/46/33 117/132/33 118/104/33
f 116/81/35 84/45/35 233/145/35 239/82/35
f 162/14/4 68/18/4 6/17/4 131/15/4
f 64/130/38 62/106/38 95/96/38 96/40/38
f 65/146/24 161/144/24 162/14/24 67/13/24
f 63/147/11 160/142/11 161/144/11 65/146/11
f 61/148/38 159/141/38 160/142/38 63/147/38
f 59/149/26 158/139/26 159/141/26 61/148/26
f 57/150/1 157/138/1 158/139/1 59/149/1
f 55/151/15 156/137/15 157/138/15 57/150/15
f 53/152/37 155/136/37 156/137/37 55/151/37
f 51/153/36 154/133/36 165/135/36 166/154/36
f 49/155/21 153/131/21 154/133/21 51/153/21
f 47/156/14 152/128/14 153/131/14 49/155/14
f 45/157/34 151/126/34 152/128/34 47/156/34
f 43/158/27 150/124/27 151/126/27 45/157/27
f 41/159/33 149/123/33 150/124/33 43/158/33
f 39/160/12 148/118/12 149/123/12 41/159/12
f 37/161/31 147/115/31 148/118/31 39/160/31
f 35/162/29 146/110/29 147/115/29 37/161/29
f 33/163/19 145/108/19 146/110/19 35/162/19
f 31/164/17 144/103/17 145/108/17 33/163/17
f 29/165/28 143/95/28 144/103/28 31/164/28
f 27/166/25 142/90/25 143/95/25 29/165/25
f 25/167/7 141/86/7 142/90/7 27/166/7
f 23/168/9 140/79/9 141/86/9 25/167/9
f 21/169/22 139/72/22 140/79/22 23/168/22
f 19/170/2 138/64/2 139/72/2 21/169/2
f 17/171/18 137/57/18 138/64/18 19/170/18
f 15/172/16 136/48/16 137/57/16 17/171/16
f 13/173/13 135/38/13 136/48/13 15/172/13
f 11/174/10 134/30/10 135/38/10 13/173/10
f 9/175/8 133/22/8 134/30/8 11/174/8
f 7/176/6 132/12/6 133/22/6 9/175/6
f 5/177/3 131/9/3 132/12/3 7/176/3
f 118/104/41 117/132/41 185/178/41 186/179/41
f 100/180/42 130/125/42 198/181/42 168/182/42
f 104/66/43 103/111/43 171/183/43 172/184/43
f 117/132/44 116/81/44 184/185/44 185/178/44
f 130/125/45 129/42/45 197/186/45 198/181/45
f 103/111/46 102/33/46 170/187/46 171/183/46
f 116/81/47 115/80/47 183/188/47 184/185/47
f 129/42/48 128/41/48 196/189/48 197/186/48
f 102/33/49 101/32/49 169/190/49 170/187/49
f 115/80/50 114/119/50 182/191/50 183/188/50
f 128/41/51 127/97/51 195/192/51 196/189/51
f 101/32/52 99/120/52 91/193/52 169/190/52
f 114/119/53 113/61/53 181/194/53 182/191/53
f 127/97/54 126/4/54 194/195/54 195/192/54
f 99/120/55 100/196/55 168/197/55 91/193/55
f 113/61/56 112/60/56 180/198/56 181/194/56
f 126/4/57 125/3/57 193/199/57 194/195/57
f 112/60/58 111/109/58 179/200/58 180/198/58
f 125/3/59 124/75/59 192/201/59 193/199/59
f 111/109/60 110/26/60 178/202/60 179/200/60
f 124/75/61 167/74/61 199/203/61 192/201/61
f 110/26/62 109/25/62 177/204/62 178/202/62
f 123/143/63 122/116/63 190/205/63 191/206/63
f 109/25/64 108/87/64 176/207/64 177/204/64
f 122/116/65 121/52/65 189/208/65 190/205/65
f 108/87/66 107/8/66 175/209/66 176/207/66
f 121/52/67 120/51/67 188/210/67 189/208/67
f 107/8/68 106/7/68 174/211/68 175/209/68
f 120/51/69 119/105/69 187/212/69 188/210/69
f 106/7/70 105/67/70 173/213/70 174/211/70
f 119/105/71 118/104/71 186/179/71 187/212/71
f 105/67/72 104/66/72 172/184/72 173/213/72
f 198/181/73 231/214/73 230/215/73 197/186/73
f 176/207/74 209/216/74 208/217/74 175/209/74
f 189/208/75 222/218/75 221/219/75 188/210/75
f 168/182/76 201/220/76 231/214/76 198/181/76
f 175/209/77 208/217/77 207/221/77 174/211/77
f 197/186/78 230/215/78 229/222/78 196/189/78
f 188/210/79 221/219/79 220/223/79 187/212/79
f 174/211/80 207/221/80 206/224/80 173/213/80
f 187/212/81 220/223/81 219/225/81 186/179/81
f 173/213/82 206/224/82 205/226/82 172/184/82
f 186/179/83 219/225/83 218/227/83 185/178/83
f 172/184/84 205/226/84 204/228/84 171/183/84
f 185/178/85 218/227/85 217/229/85 184/185/85
f 171/183/86 204/228/86 203/230/86 170/187/86
f 184/185/87 217/229/87 216/231/87 183/188/87
f 170/187/88 203/230/88 202/232/88 169/190/88
f 183/188/89 216/231/89 215/233/89 182/191/89
f 196/189/90 229/222/90 228/234/90 195/192/90
f 169/190/91 202/232/91 200/235/91 91/193/91
f 182/191/92 215/233/92 214/236/92 181/194/92
f 195/192/93 228/234/93 227/237/93 194/195/93
f 91/193/94 200/235/94 201/238/94 168/197/94
f 181/194/95 214/236/95 213/239/95 180/198/95
f 194/195/96 227/237/96 226/240/96 193/199/96
f 180/198/97 213/239/97 212/241/97 179/200/97
f 193/199/98 226/240/98 225/242/98 192/201/98
f 179/200/99 212/241/99 211/243/99 178/202/99
f 192/201/100 225/242/100 232/244/100 199/203/100
f 178/202/101 211/243/101 210/245/101 177/204/101
f 191/206/102 224/246/102 223/247/102 190/205/102
f 177/204/103 210/245/103 209/216/103 176/207/103
f 190/205/104 223/247/104 222/218/104 189/208/104
f 233/145/31 235/248/31 240/83/31 239/82/31
f 234/114/31 237/113/31 235/248/31 233/145/31
f 237/113/29 238/249/29 236/250/29 235/248/29
f 235/248/29 236/250/29 241/140/29 240/83/29
f 36/68/32 82/70/32 236/250/32 238/249/32
f 82/70/32 114/119/32 241/140/32 236/250/32
f 84/45/35 40/44/35 234/114/35 233/145/35
f 38/112/5 36/68/5 238/249/5 237/113/5
f 245/20/4 242/19/4 83/129/4 243/251/4
f 246/121/3 243/252/3 247/253/3 249/122/3
f 244/92/3 245/91/3 243/252/3 246/121/3
f 243/251/4 83/129/4 248/254/4 247/255/4
f 4/27/32 8/11/32 244/92/32 246/121/32
f 130/125/23 100/180/23 247/255/23 248/254/23
f 98/85/35 130/125/35 248/254/35 83/129/35
f 100/196/23 99/120/23 249/122/23 247/253/23
