<?xml version="1.0" encoding="UTF-8" standalone="no"?>
<svg
   xmlns:dc="http://purl.org/dc/elements/1.1/"
   xmlns:cc="http://creativecommons.org/ns#"
   xmlns:rdf="http://www.w3.org/1999/02/22-rdf-syntax-ns#"
   xmlns:svg="http://www.w3.org/2000/svg"
   xmlns="http://www.w3.org/2000/svg"
   viewBox="0 0 237.13 615.85"
   version="1.1"
   id="svg3757">
  <metadata
     id="metadata3761">
    <rdf:RDF>
      <cc:Work
         rdf:about="">
        <dc:format>image/svg+xml</dc:format>
        <dc:type
           rdf:resource="http://purl.org/dc/dcmitype/StillImage" />
        <dc:title>cuttingBoard</dc:title>
      </cc:Work>
    </rdf:RDF>
  </metadata>
  <defs
     id="defs3748">
    <style
       id="style3746">.cls-1{fill:#359fda;}.cls-2{fill:#e84222;stroke:#5cba7d;stroke-miterlimit:10;}</style>
  </defs>
  <title
     id="title3750">cuttingBoard</title>
  <g
     id="レイヤー_2"
     data-name="レイヤー 2"
     transform="matrix(3.6821949,0,0,3.6821949,3.4512687,-1662.9529)">
    <path
       class="cls-1"
       d="m 296.22,116.93 c 0,0 -24.65,0 -53.61,2.55 a 329,329 0 0 0 -48.5,8.24 7.92,7.92 0 0 0 -6,6.86 1713.07,1713.07 0 0 0 -10.36,206.9 c 1.31,99.53 8.34,173.35 10.13,195.23 a 8.65,8.65 0 0 0 7.19,7.83 c 11,1.86 33.29,5.39 47.38,6.16 9.58,0.51 19.41,1.8 26.89,3 a 15.18,15.18 0 0 1 12.87,15 c 0,20.9 -1,63.38 -7.41,96.27 -6.59,33.73 -10.88,48.73 -12.65,54.21 a 4.84,4.84 0 0 0 1.54,5.22 c 3.92,3.24 13.18,8.39 32.5,8.39 19.32,0 28.58,-5.15 32.49,-8.39 a 4.84,4.84 0 0 0 1.54,-5.22 c -1.76,-5.48 -6.05,-20.48 -12.64,-54.21 -6.43,-32.89 -7.38,-75.37 -7.41,-96.27 a 15.18,15.18 0 0 1 12.86,-15 c 7.48,-1.17 17.32,-2.46 26.9,-3 14.08,-0.77 36.36,-4.3 47.38,-6.16 a 8.67,8.67 0 0 0 7.19,-7.83 c 1.79,-21.88 8.82,-95.7 10.12,-195.23 a 1710.84,1710.84 0 0 0 -10.36,-206.9 7.92,7.92 0 0 0 -6,-6.86 328.56,328.56 0 0 0 -48.49,-8.24 c -28.9,-2.55 -53.55,-2.55 -53.55,-2.55 z"
       transform="translate(-177.65,-116.93)"
       id="path3752"
       style="fill:#359fda" />
    <circle
       class="cls-2"
       cx="9.7799997"
       cy="588"
       r="3.6500001"
       id="circle3754"
       style="fill:#e84222;stroke:#5cba7d;stroke-miterlimit:10" />
  </g>
</svg>
